<?xml version="1.0" standalone="no"?>
<!DOCTYPE svg PUBLIC "-//W3C//DTD SVG 20010904//EN"
 "http://www.w3.org/TR/2001/REC-SVG-20010904/DTD/svg10.dtd">
<svg version="1.0" xmlns="http://www.w3.org/2000/svg"
 width="600.000000pt" height="600.000000pt" viewBox="0 0 600.000000 600.000000"
 preserveAspectRatio="xMidYMid meet">
<metadata>
Created by potrace 1.14, written by Peter Selinger 2001-2017
</metadata>
<g transform="translate(0.000000,600.000000) scale(0.100000,-0.100000)"
fill="#000000" stroke="none">
<path d="M0 3000 l0 -3000 3000 0 3000 0 0 3000 0 3000 -3000 0 -3000 0 0
-3000z m2940 2200 c102 -52 124 -197 44 -281 l-24 -25 20 -60 21 -60 59 -12
c322 -67 617 -376 1101 -1157 467 -754 644 -1280 574 -1715 -73 -452 -371
-793 -871 -994 -238 -97 -491 -145 -799 -153 -279 -8 -486 13 -716 72 -599
153 -955 497 -1040 1005 -17 103 -15 356 5 530 9 80 30 312 46 515 55 669 91
912 176 1193 40 132 80 215 139 292 42 54 124 136 176 175 26 19 26 23 20 93
-6 72 -6 73 -46 95 -127 71 -124 249 5 315 55 27 101 28 156 2 75 -37 121
-136 96 -208 -9 -28 -7 -33 43 -82 l52 -52 99 25 c84 21 210 41 400 63 39 5
41 6 58 60 l18 56 -25 27 c-38 40 -48 68 -48 126 0 76 27 122 91 155 56 29
114 29 170 0z"/>
<path d="M3802 3600 c-102 -43 -145 -154 -97 -250 27 -53 103 -100 162 -100
45 1 108 35 139 75 36 48 44 133 17 184 -30 57 -85 94 -145 98 -29 1 -63 -2
-76 -7z"/>
<path d="M2740 3591 c-95 -29 -178 -100 -222 -189 -30 -60 -33 -75 -33 -157 0
-76 4 -98 26 -146 36 -77 87 -130 161 -169 54 -29 75 -35 148 -38 118 -5 183
19 266 102 77 77 104 143 104 251 0 108 -27 174 -104 251 -77 77 -144 104
-249 103 -40 0 -83 -4 -97 -8z"/>
</g>
</svg>
