<svg width="300" height="152" viewBox="0 0 300 152" fill="none" xmlns="http://www.w3.org/2000/svg">
<path d="M150.318 89.3329L156.178 80.6749H165.729L157.252 93.1832L165.996 106.271H156.452L150.318 97.0475V106.271H142.395V69.6201H150.318V89.3329Z" fill="#1E1F21"/>
<path d="M249.531 88.6341V106.264H241.615V88.8228C241.615 87.0479 240.155 85.5944 238.373 85.5944C236.576 85.5944 235.123 87.0479 235.123 88.8228V106.264H227.207V69.6201H235.123V81.4855C236.639 80.3605 238.513 79.6896 240.541 79.6896C245.51 79.6826 249.531 83.6867 249.531 88.6341Z" fill="#1E1F21"/>
<path d="M130.064 80.6755V81.9403C127.917 80.5567 125.355 79.7461 122.604 79.7461C114.997 79.7461 108.828 85.8884 108.828 93.4633C108.828 101.038 114.997 107.18 122.611 107.18C125.362 107.18 127.917 106.37 130.072 104.986V106.321H137.988V80.6755H130.064V80.6755ZM123.762 100.144C119.888 100.144 116.744 97.0131 116.744 93.1558C116.744 89.2985 119.888 86.1679 123.762 86.1679C127.636 86.1679 130.78 89.2985 130.78 93.1558C130.78 97.0131 127.643 100.144 123.762 100.144Z" fill="#1E1F21"/>
<path d="M187.232 80.6755V81.9403C185.085 80.5567 182.523 79.7461 179.772 79.7461C172.165 79.7461 165.996 85.8884 165.996 93.4633C165.996 101.038 172.165 107.18 179.772 107.18C182.523 107.18 185.078 106.37 187.232 104.986V106.321H195.149V80.6755H187.232V80.6755ZM180.93 100.144C177.056 100.144 173.912 97.0131 173.912 93.1558C173.912 89.2985 177.056 86.1679 180.93 86.1679C184.804 86.1679 187.948 89.2985 187.948 93.1558C187.948 97.0131 184.804 100.144 180.93 100.144Z" fill="#1E1F21"/>
<path d="M206.7 97.9848C206.735 98.5089 206.875 98.9561 207.114 99.3125C207.367 99.6898 207.696 99.9973 208.089 100.235C208.518 100.486 209.016 100.675 209.584 100.794C210.181 100.92 210.798 100.983 211.437 100.983C212.862 100.983 213.935 100.766 214.63 100.347C215.213 99.9903 215.472 99.606 215.472 99.1029C215.472 98.8723 215.423 98.6836 215.325 98.5229C215.269 98.432 215.114 98.2434 214.686 98.0058C214.286 97.7822 213.739 97.5725 213.051 97.3769C212.328 97.1742 211.388 96.9576 210.251 96.748C208.749 96.4475 207.353 96.0701 206.096 95.6159C204.812 95.1547 203.696 94.5817 202.77 93.9179C201.815 93.2261 201.05 92.4155 200.51 91.5071C199.949 90.5637 199.661 89.4736 199.661 88.2577C199.661 87.0977 199.942 85.9657 200.496 84.9105C201.05 83.8623 201.844 82.9399 202.861 82.1643C203.858 81.4026 205.086 80.7877 206.503 80.3474C207.907 79.9072 209.507 79.6836 211.255 79.6836C213.072 79.6836 214.735 79.9002 216.195 80.3265C217.676 80.7597 218.953 81.3747 219.999 82.1433C221.066 82.9329 221.894 83.8903 222.462 84.9804C223.031 86.0775 223.318 87.2864 223.318 88.5722H215.178C215.178 87.8524 214.897 87.2864 214.3 86.7833C213.669 86.2592 212.644 86.0006 211.248 86.0006C209.935 86.0006 208.96 86.2172 208.342 86.6505C207.802 87.0278 207.556 87.4401 207.556 87.9432C207.556 88.1808 207.605 88.3975 207.704 88.6001C207.788 88.7748 207.963 88.9495 208.223 89.1172C208.546 89.3268 209.016 89.5295 209.619 89.7112C210.258 89.9068 211.093 90.0815 212.09 90.2213C213.641 90.4729 215.1 90.8013 216.427 91.1926C217.795 91.5979 219.002 92.136 220.006 92.7788C221.052 93.4567 221.887 94.2882 222.483 95.2595C223.094 96.2588 223.41 97.4537 223.41 98.8024C223.41 100.053 223.101 101.22 222.497 102.275C221.901 103.317 221.052 104.218 219.971 104.966C218.918 105.692 217.634 106.265 216.153 106.664C214.693 107.055 213.058 107.258 211.276 107.258C209.304 107.258 207.535 106.992 206.005 106.475C204.475 105.951 203.163 105.259 202.117 104.407C201.05 103.54 200.236 102.541 199.682 101.43C199.128 100.312 198.84 99.1658 198.84 98.0197L206.7 97.9848Z" fill="#1E1F21"/>
<path d="M91.8091 113.7L100.315 99.0114L83.2892 69.6274H66.2637L91.8091 113.7Z" fill="#E30613"/>
<path d="M83.2963 99.0122L91.802 113.701H74.7835L66.2637 99.0122H83.2963Z" fill="#AF1917"/>
<path d="M57.7511 84.3164H74.7767L57.7581 113.7L49.2383 99.0119L57.7511 84.3164Z" fill="#E30613"/>
<path d="M49 49.2449H50.3224V44.7224H53.098C55.1061 44.7224 56.5918 43.302 56.5918 41.2449C56.5918 39.1714 55.1714 37.8163 53.098 37.8163H49V49.2449ZM50.3224 43.5469V38.9918H52.9837C54.3551 38.9918 55.2367 39.9388 55.2367 41.2449C55.2367 42.5673 54.3551 43.5469 52.9837 43.5469H50.3224Z" fill="#1E1F21"/>
<path d="M62.1745 49.4571C64.7214 49.4571 66.6153 47.5469 66.6153 45C66.6153 42.4531 64.7541 40.5429 62.1908 40.5429C59.6602 40.5429 57.75 42.4367 57.75 45C57.75 47.5796 59.6276 49.4571 62.1745 49.4571ZM62.1745 48.2816C60.3622 48.2816 59.0724 46.9102 59.0724 45C59.0724 43.1388 60.3459 41.7184 62.1745 41.7184C64.0031 41.7184 65.2929 43.1224 65.2929 45C65.2929 46.8939 64.0031 48.2816 62.1745 48.2816Z" fill="#1E1F21"/>
<path d="M70.3203 49.2449H71.9856L74.1733 42.3551H74.2713L76.4427 49.2449H78.108L80.7693 40.7551H79.3652L77.2917 47.7755H77.1938L74.957 40.7551H73.4876L71.2346 47.7755H71.1366L69.0795 40.7551H67.6754L70.3203 49.2449Z" fill="#1E1F21"/>
<path d="M86.0064 49.4571C87.9982 49.4571 89.4839 48.3306 89.9574 46.7469H88.6186C88.2268 47.7429 87.1492 48.2816 86.0227 48.2816C84.2758 48.2816 83.1819 47.1551 83.1166 45.4571H90.039V44.8857C90.039 42.4367 88.5043 40.5429 85.9247 40.5429C83.6064 40.5429 81.7615 42.2898 81.7615 45C81.7615 47.5469 83.4105 49.4571 86.0064 49.4571ZM83.1492 44.3143C83.2798 42.7469 84.5043 41.7184 85.9247 41.7184C87.3615 41.7184 88.5533 42.6163 88.6676 44.3143H83.1492Z" fill="#1E1F21"/>
<path d="M92.3316 49.2449H93.6214V44.8694C93.6214 43.2531 94.4867 42.0449 96.0378 42.0449H96.7398V40.7551H96.0214C94.7806 40.7551 93.948 41.6204 93.7031 42.3388H93.6051V40.7551H92.3316V49.2449Z" fill="#1E1F21"/>
<path d="M102.142 49.4571C104.133 49.4571 105.619 48.3306 106.093 46.7469H104.754C104.362 47.7429 103.284 48.2816 102.158 48.2816C100.411 48.2816 99.3171 47.1551 99.2518 45.4571H106.174V44.8857C106.174 42.4367 104.64 40.5429 102.06 40.5429C99.7416 40.5429 97.8967 42.2898 97.8967 45C97.8967 47.5469 99.5457 49.4571 102.142 49.4571ZM99.2844 44.3143C99.415 42.7469 100.64 41.7184 102.06 41.7184C103.497 41.7184 104.689 42.6163 104.803 44.3143H99.2844Z" fill="#1E1F21"/>
<path d="M112.042 49.4571C113.887 49.4571 114.769 48.2163 114.981 47.9061H115.079V49.2449H116.32V37H115.03V42.1265H114.932C114.671 41.6857 113.724 40.5429 111.944 40.5429C109.544 40.5429 107.814 42.4041 107.814 45.0163C107.814 47.6122 109.544 49.4571 112.042 49.4571ZM112.124 48.298C110.344 48.298 109.136 47.0082 109.136 45.0163C109.136 43.0898 110.344 41.7184 112.091 41.7184C113.773 41.7184 115.079 42.9265 115.079 45.0163C115.079 46.7959 113.969 48.298 112.124 48.298Z" fill="#1E1F21"/>
<path d="M127.955 49.4571C130.453 49.4571 132.183 47.6122 132.183 45.0163C132.183 42.4041 130.453 40.5429 128.053 40.5429C126.273 40.5429 125.326 41.6857 125.065 42.1265H124.967V37H123.677V49.2449H124.918V47.9061H125.016C125.228 48.2163 126.11 49.4571 127.955 49.4571ZM127.873 48.298C126.028 48.298 124.918 46.7959 124.918 45.0163C124.918 42.9265 126.224 41.7184 127.906 41.7184C129.653 41.7184 130.861 43.0898 130.861 45.0163C130.861 47.0082 129.653 48.298 127.873 48.298Z" fill="#1E1F21"/>
<path d="M134.085 53H134.967C136.355 53 137.024 52.3469 137.465 51.1878L141.514 40.7551H140.061L137.416 47.9388H137.318L134.689 40.7551H133.253L136.697 49.702L136.306 50.7306C136.028 51.4653 135.555 51.8245 134.722 51.8245H134.085V53Z" fill="#1E1F21"/>
</svg>
